<svg xmlns="http://www.w3.org/2000/svg" viewBox="0 0 1272 152" width="1272" height="152" role="img" aria-label="DESIGN &amp; CODE">
  <style>
    .lvl-0 { fill: #ebedf0; } .lvl-1 { fill: #9be9a8; } .lvl-2 { fill: #40c463; } .lvl-3 { fill: #30a14e; } .lvl-4 { fill: #216e39; }
    @media (prefers-color-scheme: dark) { .lvl-0 { fill: #161b22; } .lvl-1 { fill: #0e4429; } .lvl-2 { fill: #006d32; } .lvl-3 { fill: #26a641; } .lvl-4 { fill: #39d353; } }
  </style>
  <rect x="20" y="20" width="14" height="14" rx="2" ry="2" class="lvl-3" />
  <rect x="36" y="20" width="14" height="14" rx="2" ry="2" class="lvl-3" />
  <rect x="52" y="20" width="14" height="14" rx="2" ry="2" class="lvl-2" />
  <rect x="68" y="20" width="14" height="14" rx="2" ry="2" class="lvl-3" />
  <rect x="84" y="20" width="14" height="14" rx="2" ry="2" class="lvl-0" />
  <rect x="20" y="36" width="14" height="14" rx="2" ry="2" class="lvl-3" />
  <rect x="36" y="36" width="14" height="14" rx="2" ry="2" class="lvl-0" />
  <rect x="52" y="36" width="14" height="14" rx="2" ry="2" class="lvl-0" />
  <rect x="68" y="36" width="14" height="14" rx="2" ry="2" class="lvl-0" />
  <rect x="84" y="36" width="14" height="14" rx="2" ry="2" class="lvl-3" />
  <rect x="20" y="52" width="14" height="14" rx="2" ry="2" class="lvl-3" />
  <rect x="36" y="52" width="14" height="14" rx="2" ry="2" class="lvl-0" />
  <rect x="52" y="52" width="14" height="14" rx="2" ry="2" class="lvl-0" />
  <rect x="68" y="52" width="14" height="14" rx="2" ry="2" class="lvl-0" />
  <rect x="84" y="52" width="14" height="14" rx="2" ry="2" class="lvl-4" />
  <rect x="20" y="68" width="14" height="14" rx="2" ry="2" class="lvl-3" />
  <rect x="36" y="68" width="14" height="14" rx="2" ry="2" class="lvl-0" />
  <rect x="52" y="68" width="14" height="14" rx="2" ry="2" class="lvl-0" />
  <rect x="68" y="68" width="14" height="14" rx="2" ry="2" class="lvl-0" />
  <rect x="84" y="68" width="14" height="14" rx="2" ry="2" class="lvl-4" />
  <rect x="20" y="84" width="14" height="14" rx="2" ry="2" class="lvl-3" />
  <rect x="36" y="84" width="14" height="14" rx="2" ry="2" class="lvl-0" />
  <rect x="52" y="84" width="14" height="14" rx="2" ry="2" class="lvl-0" />
  <rect x="68" y="84" width="14" height="14" rx="2" ry="2" class="lvl-0" />
  <rect x="84" y="84" width="14" height="14" rx="2" ry="2" class="lvl-4" />
  <rect x="20" y="100" width="14" height="14" rx="2" ry="2" class="lvl-3" />
  <rect x="36" y="100" width="14" height="14" rx="2" ry="2" class="lvl-0" />
  <rect x="52" y="100" width="14" height="14" rx="2" ry="2" class="lvl-0" />
  <rect x="68" y="100" width="14" height="14" rx="2" ry="2" class="lvl-0" />
  <rect x="84" y="100" width="14" height="14" rx="2" ry="2" class="lvl-4" />
  <rect x="20" y="116" width="14" height="14" rx="2" ry="2" class="lvl-4" />
  <rect x="36" y="116" width="14" height="14" rx="2" ry="2" class="lvl-2" />
  <rect x="52" y="116" width="14" height="14" rx="2" ry="2" class="lvl-3" />
  <rect x="68" y="116" width="14" height="14" rx="2" ry="2" class="lvl-3" />
  <rect x="84" y="116" width="14" height="14" rx="2" ry="2" class="lvl-0" />
  <rect x="116" y="20" width="14" height="14" rx="2" ry="2" class="lvl-2" />
  <rect x="132" y="20" width="14" height="14" rx="2" ry="2" class="lvl-3" />
  <rect x="148" y="20" width="14" height="14" rx="2" ry="2" class="lvl-4" />
  <rect x="164" y="20" width="14" height="14" rx="2" ry="2" class="lvl-2" />
  <rect x="180" y="20" width="14" height="14" rx="2" ry="2" class="lvl-3" />
  <rect x="116" y="36" width="14" height="14" rx="2" ry="2" class="lvl-3" />
  <rect x="132" y="36" width="14" height="14" rx="2" ry="2" class="lvl-0" />
  <rect x="148" y="36" width="14" height="14" rx="2" ry="2" class="lvl-0" />
  <rect x="164" y="36" width="14" height="14" rx="2" ry="2" class="lvl-0" />
  <rect x="180" y="36" width="14" height="14" rx="2" ry="2" class="lvl-0" />
  <rect x="116" y="52" width="14" height="14" rx="2" ry="2" class="lvl-3" />
  <rect x="132" y="52" width="14" height="14" rx="2" ry="2" class="lvl-0" />
  <rect x="148" y="52" width="14" height="14" rx="2" ry="2" class="lvl-0" />
  <rect x="164" y="52" width="14" height="14" rx="2" ry="2" class="lvl-0" />
  <rect x="180" y="52" width="14" height="14" rx="2" ry="2" class="lvl-0" />
  <rect x="116" y="68" width="14" height="14" rx="2" ry="2" class="lvl-3" />
  <rect x="132" y="68" width="14" height="14" rx="2" ry="2" class="lvl-4" />
  <rect x="148" y="68" width="14" height="14" rx="2" ry="2" class="lvl-2" />
  <rect x="164" y="68" width="14" height="14" rx="2" ry="2" class="lvl-3" />
  <rect x="180" y="68" width="14" height="14" rx="2" ry="2" class="lvl-0" />
  <rect x="116" y="84" width="14" height="14" rx="2" ry="2" class="lvl-3" />
  <rect x="132" y="84" width="14" height="14" rx="2" ry="2" class="lvl-0" />
  <rect x="148" y="84" width="14" height="14" rx="2" ry="2" class="lvl-0" />
  <rect x="164" y="84" width="14" height="14" rx="2" ry="2" class="lvl-0" />
  <rect x="180" y="84" width="14" height="14" rx="2" ry="2" class="lvl-0" />
  <rect x="116" y="100" width="14" height="14" rx="2" ry="2" class="lvl-3" />
  <rect x="132" y="100" width="14" height="14" rx="2" ry="2" class="lvl-0" />
  <rect x="148" y="100" width="14" height="14" rx="2" ry="2" class="lvl-0" />
  <rect x="164" y="100" width="14" height="14" rx="2" ry="2" class="lvl-0" />
  <rect x="180" y="100" width="14" height="14" rx="2" ry="2" class="lvl-0" />
  <rect x="116" y="116" width="14" height="14" rx="2" ry="2" class="lvl-3" />
  <rect x="132" y="116" width="14" height="14" rx="2" ry="2" class="lvl-4" />
  <rect x="148" y="116" width="14" height="14" rx="2" ry="2" class="lvl-3" />
  <rect x="164" y="116" width="14" height="14" rx="2" ry="2" class="lvl-3" />
  <rect x="180" y="116" width="14" height="14" rx="2" ry="2" class="lvl-4" />
  <rect x="212" y="20" width="14" height="14" rx="2" ry="2" class="lvl-0" />
  <rect x="228" y="20" width="14" height="14" rx="2" ry="2" class="lvl-3" />
  <rect x="244" y="20" width="14" height="14" rx="2" ry="2" class="lvl-3" />
  <rect x="260" y="20" width="14" height="14" rx="2" ry="2" class="lvl-2" />
  <rect x="276" y="20" width="14" height="14" rx="2" ry="2" class="lvl-3" />
  <rect x="212" y="36" width="14" height="14" rx="2" ry="2" class="lvl-2" />
  <rect x="228" y="36" width="14" height="14" rx="2" ry="2" class="lvl-0" />
  <rect x="244" y="36" width="14" height="14" rx="2" ry="2" class="lvl-0" />
  <rect x="260" y="36" width="14" height="14" rx="2" ry="2" class="lvl-0" />
  <rect x="276" y="36" width="14" height="14" rx="2" ry="2" class="lvl-0" />
  <rect x="212" y="52" width="14" height="14" rx="2" ry="2" class="lvl-2" />
  <rect x="228" y="52" width="14" height="14" rx="2" ry="2" class="lvl-0" />
  <rect x="244" y="52" width="14" height="14" rx="2" ry="2" class="lvl-0" />
  <rect x="260" y="52" width="14" height="14" rx="2" ry="2" class="lvl-0" />
  <rect x="276" y="52" width="14" height="14" rx="2" ry="2" class="lvl-0" />
  <rect x="212" y="68" width="14" height="14" rx="2" ry="2" class="lvl-0" />
  <rect x="228" y="68" width="14" height="14" rx="2" ry="2" class="lvl-3" />
  <rect x="244" y="68" width="14" height="14" rx="2" ry="2" class="lvl-4" />
  <rect x="260" y="68" width="14" height="14" rx="2" ry="2" class="lvl-2" />
  <rect x="276" y="68" width="14" height="14" rx="2" ry="2" class="lvl-0" />
  <rect x="212" y="84" width="14" height="14" rx="2" ry="2" class="lvl-0" />
  <rect x="228" y="84" width="14" height="14" rx="2" ry="2" class="lvl-0" />
  <rect x="244" y="84" width="14" height="14" rx="2" ry="2" class="lvl-0" />
  <rect x="260" y="84" width="14" height="14" rx="2" ry="2" class="lvl-0" />
  <rect x="276" y="84" width="14" height="14" rx="2" ry="2" class="lvl-3" />
  <rect x="212" y="100" width="14" height="14" rx="2" ry="2" class="lvl-0" />
  <rect x="228" y="100" width="14" height="14" rx="2" ry="2" class="lvl-0" />
  <rect x="244" y="100" width="14" height="14" rx="2" ry="2" class="lvl-0" />
  <rect x="260" y="100" width="14" height="14" rx="2" ry="2" class="lvl-0" />
  <rect x="276" y="100" width="14" height="14" rx="2" ry="2" class="lvl-3" />
  <rect x="212" y="116" width="14" height="14" rx="2" ry="2" class="lvl-3" />
  <rect x="228" y="116" width="14" height="14" rx="2" ry="2" class="lvl-4" />
  <rect x="244" y="116" width="14" height="14" rx="2" ry="2" class="lvl-2" />
  <rect x="260" y="116" width="14" height="14" rx="2" ry="2" class="lvl-3" />
  <rect x="276" y="116" width="14" height="14" rx="2" ry="2" class="lvl-0" />
  <rect x="308" y="20" width="14" height="14" rx="2" ry="2" class="lvl-4" />
  <rect x="324" y="20" width="14" height="14" rx="2" ry="2" class="lvl-3" />
  <rect x="340" y="20" width="14" height="14" rx="2" ry="2" class="lvl-3" />
  <rect x="356" y="20" width="14" height="14" rx="2" ry="2" class="lvl-4" />
  <rect x="372" y="20" width="14" height="14" rx="2" ry="2" class="lvl-2" />
  <rect x="308" y="36" width="14" height="14" rx="2" ry="2" class="lvl-0" />
  <rect x="324" y="36" width="14" height="14" rx="2" ry="2" class="lvl-0" />
  <rect x="340" y="36" width="14" height="14" rx="2" ry="2" class="lvl-3" />
  <rect x="356" y="36" width="14" height="14" rx="2" ry="2" class="lvl-0" />
  <rect x="372" y="36" width="14" height="14" rx="2" ry="2" class="lvl-0" />
  <rect x="308" y="52" width="14" height="14" rx="2" ry="2" class="lvl-0" />
  <rect x="324" y="52" width="14" height="14" rx="2" ry="2" class="lvl-0" />
  <rect x="340" y="52" width="14" height="14" rx="2" ry="2" class="lvl-3" />
  <rect x="356" y="52" width="14" height="14" rx="2" ry="2" class="lvl-0" />
  <rect x="372" y="52" width="14" height="14" rx="2" ry="2" class="lvl-0" />
  <rect x="308" y="68" width="14" height="14" rx="2" ry="2" class="lvl-0" />
  <rect x="324" y="68" width="14" height="14" rx="2" ry="2" class="lvl-0" />
  <rect x="340" y="68" width="14" height="14" rx="2" ry="2" class="lvl-4" />
  <rect x="356" y="68" width="14" height="14" rx="2" ry="2" class="lvl-0" />
  <rect x="372" y="68" width="14" height="14" rx="2" ry="2" class="lvl-0" />
  <rect x="308" y="84" width="14" height="14" rx="2" ry="2" class="lvl-0" />
  <rect x="324" y="84" width="14" height="14" rx="2" ry="2" class="lvl-0" />
  <rect x="340" y="84" width="14" height="14" rx="2" ry="2" class="lvl-4" />
  <rect x="356" y="84" width="14" height="14" rx="2" ry="2" class="lvl-0" />
  <rect x="372" y="84" width="14" height="14" rx="2" ry="2" class="lvl-0" />
  <rect x="308" y="100" width="14" height="14" rx="2" ry="2" class="lvl-0" />
  <rect x="324" y="100" width="14" height="14" rx="2" ry="2" class="lvl-0" />
  <rect x="340" y="100" width="14" height="14" rx="2" ry="2" class="lvl-4" />
  <rect x="356" y="100" width="14" height="14" rx="2" ry="2" class="lvl-0" />
  <rect x="372" y="100" width="14" height="14" rx="2" ry="2" class="lvl-0" />
  <rect x="308" y="116" width="14" height="14" rx="2" ry="2" class="lvl-3" />
  <rect x="324" y="116" width="14" height="14" rx="2" ry="2" class="lvl-3" />
  <rect x="340" y="116" width="14" height="14" rx="2" ry="2" class="lvl-2" />
  <rect x="356" y="116" width="14" height="14" rx="2" ry="2" class="lvl-3" />
  <rect x="372" y="116" width="14" height="14" rx="2" ry="2" class="lvl-3" />
  <rect x="404" y="20" width="14" height="14" rx="2" ry="2" class="lvl-0" />
  <rect x="420" y="20" width="14" height="14" rx="2" ry="2" class="lvl-2" />
  <rect x="436" y="20" width="14" height="14" rx="2" ry="2" class="lvl-3" />
  <rect x="452" y="20" width="14" height="14" rx="2" ry="2" class="lvl-4" />
  <rect x="468" y="20" width="14" height="14" rx="2" ry="2" class="lvl-0" />
  <rect x="404" y="36" width="14" height="14" rx="2" ry="2" class="lvl-4" />
  <rect x="420" y="36" width="14" height="14" rx="2" ry="2" class="lvl-0" />
  <rect x="436" y="36" width="14" height="14" rx="2" ry="2" class="lvl-0" />
  <rect x="452" y="36" width="14" height="14" rx="2" ry="2" class="lvl-0" />
  <rect x="468" y="36" width="14" height="14" rx="2" ry="2" class="lvl-2" />
  <rect x="404" y="52" width="14" height="14" rx="2" ry="2" class="lvl-4" />
  <rect x="420" y="52" width="14" height="14" rx="2" ry="2" class="lvl-0" />
  <rect x="436" y="52" width="14" height="14" rx="2" ry="2" class="lvl-0" />
  <rect x="452" y="52" width="14" height="14" rx="2" ry="2" class="lvl-0" />
  <rect x="468" y="52" width="14" height="14" rx="2" ry="2" class="lvl-0" />
  <rect x="404" y="68" width="14" height="14" rx="2" ry="2" class="lvl-2" />
  <rect x="420" y="68" width="14" height="14" rx="2" ry="2" class="lvl-0" />
  <rect x="436" y="68" width="14" height="14" rx="2" ry="2" class="lvl-0" />
  <rect x="452" y="68" width="14" height="14" rx="2" ry="2" class="lvl-4" />
  <rect x="468" y="68" width="14" height="14" rx="2" ry="2" class="lvl-3" />
  <rect x="404" y="84" width="14" height="14" rx="2" ry="2" class="lvl-2" />
  <rect x="420" y="84" width="14" height="14" rx="2" ry="2" class="lvl-0" />
  <rect x="436" y="84" width="14" height="14" rx="2" ry="2" class="lvl-0" />
  <rect x="452" y="84" width="14" height="14" rx="2" ry="2" class="lvl-0" />
  <rect x="468" y="84" width="14" height="14" rx="2" ry="2" class="lvl-3" />
  <rect x="404" y="100" width="14" height="14" rx="2" ry="2" class="lvl-2" />
  <rect x="420" y="100" width="14" height="14" rx="2" ry="2" class="lvl-0" />
  <rect x="436" y="100" width="14" height="14" rx="2" ry="2" class="lvl-0" />
  <rect x="452" y="100" width="14" height="14" rx="2" ry="2" class="lvl-0" />
  <rect x="468" y="100" width="14" height="14" rx="2" ry="2" class="lvl-3" />
  <rect x="404" y="116" width="14" height="14" rx="2" ry="2" class="lvl-0" />
  <rect x="420" y="116" width="14" height="14" rx="2" ry="2" class="lvl-3" />
  <rect x="436" y="116" width="14" height="14" rx="2" ry="2" class="lvl-4" />
  <rect x="452" y="116" width="14" height="14" rx="2" ry="2" class="lvl-2" />
  <rect x="468" y="116" width="14" height="14" rx="2" ry="2" class="lvl-0" />
  <rect x="500" y="20" width="14" height="14" rx="2" ry="2" class="lvl-3" />
  <rect x="516" y="20" width="14" height="14" rx="2" ry="2" class="lvl-0" />
  <rect x="532" y="20" width="14" height="14" rx="2" ry="2" class="lvl-0" />
  <rect x="548" y="20" width="14" height="14" rx="2" ry="2" class="lvl-0" />
  <rect x="564" y="20" width="14" height="14" rx="2" ry="2" class="lvl-4" />
  <rect x="500" y="36" width="14" height="14" rx="2" ry="2" class="lvl-4" />
  <rect x="516" y="36" width="14" height="14" rx="2" ry="2" class="lvl-2" />
  <rect x="532" y="36" width="14" height="14" rx="2" ry="2" class="lvl-0" />
  <rect x="548" y="36" width="14" height="14" rx="2" ry="2" class="lvl-0" />
  <rect x="564" y="36" width="14" height="14" rx="2" ry="2" class="lvl-4" />
  <rect x="500" y="52" width="14" height="14" rx="2" ry="2" class="lvl-4" />
  <rect x="516" y="52" width="14" height="14" rx="2" ry="2" class="lvl-0" />
  <rect x="532" y="52" width="14" height="14" rx="2" ry="2" class="lvl-3" />
  <rect x="548" y="52" width="14" height="14" rx="2" ry="2" class="lvl-0" />
  <rect x="564" y="52" width="14" height="14" rx="2" ry="2" class="lvl-2" />
  <rect x="500" y="68" width="14" height="14" rx="2" ry="2" class="lvl-4" />
  <rect x="516" y="68" width="14" height="14" rx="2" ry="2" class="lvl-0" />
  <rect x="532" y="68" width="14" height="14" rx="2" ry="2" class="lvl-0" />
  <rect x="548" y="68" width="14" height="14" rx="2" ry="2" class="lvl-4" />
  <rect x="564" y="68" width="14" height="14" rx="2" ry="2" class="lvl-2" />
  <rect x="500" y="84" width="14" height="14" rx="2" ry="2" class="lvl-4" />
  <rect x="516" y="84" width="14" height="14" rx="2" ry="2" class="lvl-0" />
  <rect x="532" y="84" width="14" height="14" rx="2" ry="2" class="lvl-0" />
  <rect x="548" y="84" width="14" height="14" rx="2" ry="2" class="lvl-0" />
  <rect x="564" y="84" width="14" height="14" rx="2" ry="2" class="lvl-2" />
  <rect x="500" y="100" width="14" height="14" rx="2" ry="2" class="lvl-2" />
  <rect x="516" y="100" width="14" height="14" rx="2" ry="2" class="lvl-0" />
  <rect x="532" y="100" width="14" height="14" rx="2" ry="2" class="lvl-0" />
  <rect x="548" y="100" width="14" height="14" rx="2" ry="2" class="lvl-0" />
  <rect x="564" y="100" width="14" height="14" rx="2" ry="2" class="lvl-3" />
  <rect x="500" y="116" width="14" height="14" rx="2" ry="2" class="lvl-2" />
  <rect x="516" y="116" width="14" height="14" rx="2" ry="2" class="lvl-0" />
  <rect x="532" y="116" width="14" height="14" rx="2" ry="2" class="lvl-0" />
  <rect x="548" y="116" width="14" height="14" rx="2" ry="2" class="lvl-0" />
  <rect x="564" y="116" width="14" height="14" rx="2" ry="2" class="lvl-3" />
  <rect x="596" y="20" width="14" height="14" rx="2" ry="2" class="lvl-0" />
  <rect x="612" y="20" width="14" height="14" rx="2" ry="2" class="lvl-0" />
  <rect x="628" y="20" width="14" height="14" rx="2" ry="2" class="lvl-0" />
  <rect x="644" y="20" width="14" height="14" rx="2" ry="2" class="lvl-0" />
  <rect x="660" y="20" width="14" height="14" rx="2" ry="2" class="lvl-0" />
  <rect x="596" y="36" width="14" height="14" rx="2" ry="2" class="lvl-0" />
  <rect x="612" y="36" width="14" height="14" rx="2" ry="2" class="lvl-0" />
  <rect x="628" y="36" width="14" height="14" rx="2" ry="2" class="lvl-0" />
  <rect x="644" y="36" width="14" height="14" rx="2" ry="2" class="lvl-0" />
  <rect x="660" y="36" width="14" height="14" rx="2" ry="2" class="lvl-0" />
  <rect x="596" y="52" width="14" height="14" rx="2" ry="2" class="lvl-0" />
  <rect x="612" y="52" width="14" height="14" rx="2" ry="2" class="lvl-0" />
  <rect x="628" y="52" width="14" height="14" rx="2" ry="2" class="lvl-0" />
  <rect x="644" y="52" width="14" height="14" rx="2" ry="2" class="lvl-0" />
  <rect x="660" y="52" width="14" height="14" rx="2" ry="2" class="lvl-0" />
  <rect x="596" y="68" width="14" height="14" rx="2" ry="2" class="lvl-0" />
  <rect x="612" y="68" width="14" height="14" rx="2" ry="2" class="lvl-0" />
  <rect x="628" y="68" width="14" height="14" rx="2" ry="2" class="lvl-0" />
  <rect x="644" y="68" width="14" height="14" rx="2" ry="2" class="lvl-0" />
  <rect x="660" y="68" width="14" height="14" rx="2" ry="2" class="lvl-0" />
  <rect x="596" y="84" width="14" height="14" rx="2" ry="2" class="lvl-0" />
  <rect x="612" y="84" width="14" height="14" rx="2" ry="2" class="lvl-0" />
  <rect x="628" y="84" width="14" height="14" rx="2" ry="2" class="lvl-0" />
  <rect x="644" y="84" width="14" height="14" rx="2" ry="2" class="lvl-0" />
  <rect x="660" y="84" width="14" height="14" rx="2" ry="2" class="lvl-0" />
  <rect x="596" y="100" width="14" height="14" rx="2" ry="2" class="lvl-0" />
  <rect x="612" y="100" width="14" height="14" rx="2" ry="2" class="lvl-0" />
  <rect x="628" y="100" width="14" height="14" rx="2" ry="2" class="lvl-0" />
  <rect x="644" y="100" width="14" height="14" rx="2" ry="2" class="lvl-0" />
  <rect x="660" y="100" width="14" height="14" rx="2" ry="2" class="lvl-0" />
  <rect x="596" y="116" width="14" height="14" rx="2" ry="2" class="lvl-0" />
  <rect x="612" y="116" width="14" height="14" rx="2" ry="2" class="lvl-0" />
  <rect x="628" y="116" width="14" height="14" rx="2" ry="2" class="lvl-0" />
  <rect x="644" y="116" width="14" height="14" rx="2" ry="2" class="lvl-0" />
  <rect x="660" y="116" width="14" height="14" rx="2" ry="2" class="lvl-0" />
  <rect x="692" y="20" width="14" height="14" rx="2" ry="2" class="lvl-0" />
  <rect x="708" y="20" width="14" height="14" rx="2" ry="2" class="lvl-3" />
  <rect x="724" y="20" width="14" height="14" rx="2" ry="2" class="lvl-2" />
  <rect x="740" y="20" width="14" height="14" rx="2" ry="2" class="lvl-0" />
  <rect x="756" y="20" width="14" height="14" rx="2" ry="2" class="lvl-0" />
  <rect x="692" y="36" width="14" height="14" rx="2" ry="2" class="lvl-3" />
  <rect x="708" y="36" width="14" height="14" rx="2" ry="2" class="lvl-0" />
  <rect x="724" y="36" width="14" height="14" rx="2" ry="2" class="lvl-0" />
  <rect x="740" y="36" width="14" height="14" rx="2" ry="2" class="lvl-3" />
  <rect x="756" y="36" width="14" height="14" rx="2" ry="2" class="lvl-0" />
  <rect x="692" y="52" width="14" height="14" rx="2" ry="2" class="lvl-3" />
  <rect x="708" y="52" width="14" height="14" rx="2" ry="2" class="lvl-0" />
  <rect x="724" y="52" width="14" height="14" rx="2" ry="2" class="lvl-2" />
  <rect x="740" y="52" width="14" height="14" rx="2" ry="2" class="lvl-0" />
  <rect x="756" y="52" width="14" height="14" rx="2" ry="2" class="lvl-0" />
  <rect x="692" y="68" width="14" height="14" rx="2" ry="2" class="lvl-0" />
  <rect x="708" y="68" width="14" height="14" rx="2" ry="2" class="lvl-4" />
  <rect x="724" y="68" width="14" height="14" rx="2" ry="2" class="lvl-0" />
  <rect x="740" y="68" width="14" height="14" rx="2" ry="2" class="lvl-0" />
  <rect x="756" y="68" width="14" height="14" rx="2" ry="2" class="lvl-0" />
  <rect x="692" y="84" width="14" height="14" rx="2" ry="2" class="lvl-3" />
  <rect x="708" y="84" width="14" height="14" rx="2" ry="2" class="lvl-0" />
  <rect x="724" y="84" width="14" height="14" rx="2" ry="2" class="lvl-3" />
  <rect x="740" y="84" width="14" height="14" rx="2" ry="2" class="lvl-0" />
  <rect x="756" y="84" width="14" height="14" rx="2" ry="2" class="lvl-4" />
  <rect x="692" y="100" width="14" height="14" rx="2" ry="2" class="lvl-4" />
  <rect x="708" y="100" width="14" height="14" rx="2" ry="2" class="lvl-0" />
  <rect x="724" y="100" width="14" height="14" rx="2" ry="2" class="lvl-0" />
  <rect x="740" y="100" width="14" height="14" rx="2" ry="2" class="lvl-3" />
  <rect x="756" y="100" width="14" height="14" rx="2" ry="2" class="lvl-0" />
  <rect x="692" y="116" width="14" height="14" rx="2" ry="2" class="lvl-0" />
  <rect x="708" y="116" width="14" height="14" rx="2" ry="2" class="lvl-2" />
  <rect x="724" y="116" width="14" height="14" rx="2" ry="2" class="lvl-3" />
  <rect x="740" y="116" width="14" height="14" rx="2" ry="2" class="lvl-0" />
  <rect x="756" y="116" width="14" height="14" rx="2" ry="2" class="lvl-2" />
  <rect x="788" y="20" width="14" height="14" rx="2" ry="2" class="lvl-0" />
  <rect x="804" y="20" width="14" height="14" rx="2" ry="2" class="lvl-0" />
  <rect x="820" y="20" width="14" height="14" rx="2" ry="2" class="lvl-0" />
  <rect x="836" y="20" width="14" height="14" rx="2" ry="2" class="lvl-0" />
  <rect x="852" y="20" width="14" height="14" rx="2" ry="2" class="lvl-0" />
  <rect x="788" y="36" width="14" height="14" rx="2" ry="2" class="lvl-0" />
  <rect x="804" y="36" width="14" height="14" rx="2" ry="2" class="lvl-0" />
  <rect x="820" y="36" width="14" height="14" rx="2" ry="2" class="lvl-0" />
  <rect x="836" y="36" width="14" height="14" rx="2" ry="2" class="lvl-0" />
  <rect x="852" y="36" width="14" height="14" rx="2" ry="2" class="lvl-0" />
  <rect x="788" y="52" width="14" height="14" rx="2" ry="2" class="lvl-0" />
  <rect x="804" y="52" width="14" height="14" rx="2" ry="2" class="lvl-0" />
  <rect x="820" y="52" width="14" height="14" rx="2" ry="2" class="lvl-0" />
  <rect x="836" y="52" width="14" height="14" rx="2" ry="2" class="lvl-0" />
  <rect x="852" y="52" width="14" height="14" rx="2" ry="2" class="lvl-0" />
  <rect x="788" y="68" width="14" height="14" rx="2" ry="2" class="lvl-0" />
  <rect x="804" y="68" width="14" height="14" rx="2" ry="2" class="lvl-0" />
  <rect x="820" y="68" width="14" height="14" rx="2" ry="2" class="lvl-0" />
  <rect x="836" y="68" width="14" height="14" rx="2" ry="2" class="lvl-0" />
  <rect x="852" y="68" width="14" height="14" rx="2" ry="2" class="lvl-0" />
  <rect x="788" y="84" width="14" height="14" rx="2" ry="2" class="lvl-0" />
  <rect x="804" y="84" width="14" height="14" rx="2" ry="2" class="lvl-0" />
  <rect x="820" y="84" width="14" height="14" rx="2" ry="2" class="lvl-0" />
  <rect x="836" y="84" width="14" height="14" rx="2" ry="2" class="lvl-0" />
  <rect x="852" y="84" width="14" height="14" rx="2" ry="2" class="lvl-0" />
  <rect x="788" y="100" width="14" height="14" rx="2" ry="2" class="lvl-0" />
  <rect x="804" y="100" width="14" height="14" rx="2" ry="2" class="lvl-0" />
  <rect x="820" y="100" width="14" height="14" rx="2" ry="2" class="lvl-0" />
  <rect x="836" y="100" width="14" height="14" rx="2" ry="2" class="lvl-0" />
  <rect x="852" y="100" width="14" height="14" rx="2" ry="2" class="lvl-0" />
  <rect x="788" y="116" width="14" height="14" rx="2" ry="2" class="lvl-0" />
  <rect x="804" y="116" width="14" height="14" rx="2" ry="2" class="lvl-0" />
  <rect x="820" y="116" width="14" height="14" rx="2" ry="2" class="lvl-0" />
  <rect x="836" y="116" width="14" height="14" rx="2" ry="2" class="lvl-0" />
  <rect x="852" y="116" width="14" height="14" rx="2" ry="2" class="lvl-0" />
  <rect x="884" y="20" width="14" height="14" rx="2" ry="2" class="lvl-0" />
  <rect x="900" y="20" width="14" height="14" rx="2" ry="2" class="lvl-3" />
  <rect x="916" y="20" width="14" height="14" rx="2" ry="2" class="lvl-3" />
  <rect x="932" y="20" width="14" height="14" rx="2" ry="2" class="lvl-2" />
  <rect x="948" y="20" width="14" height="14" rx="2" ry="2" class="lvl-0" />
  <rect x="884" y="36" width="14" height="14" rx="2" ry="2" class="lvl-2" />
  <rect x="900" y="36" width="14" height="14" rx="2" ry="2" class="lvl-0" />
  <rect x="916" y="36" width="14" height="14" rx="2" ry="2" class="lvl-0" />
  <rect x="932" y="36" width="14" height="14" rx="2" ry="2" class="lvl-0" />
  <rect x="948" y="36" width="14" height="14" rx="2" ry="2" class="lvl-3" />
  <rect x="884" y="52" width="14" height="14" rx="2" ry="2" class="lvl-3" />
  <rect x="900" y="52" width="14" height="14" rx="2" ry="2" class="lvl-0" />
  <rect x="916" y="52" width="14" height="14" rx="2" ry="2" class="lvl-0" />
  <rect x="932" y="52" width="14" height="14" rx="2" ry="2" class="lvl-0" />
  <rect x="948" y="52" width="14" height="14" rx="2" ry="2" class="lvl-0" />
  <rect x="884" y="68" width="14" height="14" rx="2" ry="2" class="lvl-3" />
  <rect x="900" y="68" width="14" height="14" rx="2" ry="2" class="lvl-0" />
  <rect x="916" y="68" width="14" height="14" rx="2" ry="2" class="lvl-0" />
  <rect x="932" y="68" width="14" height="14" rx="2" ry="2" class="lvl-0" />
  <rect x="948" y="68" width="14" height="14" rx="2" ry="2" class="lvl-0" />
  <rect x="884" y="84" width="14" height="14" rx="2" ry="2" class="lvl-3" />
  <rect x="900" y="84" width="14" height="14" rx="2" ry="2" class="lvl-0" />
  <rect x="916" y="84" width="14" height="14" rx="2" ry="2" class="lvl-0" />
  <rect x="932" y="84" width="14" height="14" rx="2" ry="2" class="lvl-0" />
  <rect x="948" y="84" width="14" height="14" rx="2" ry="2" class="lvl-0" />
  <rect x="884" y="100" width="14" height="14" rx="2" ry="2" class="lvl-3" />
  <rect x="900" y="100" width="14" height="14" rx="2" ry="2" class="lvl-0" />
  <rect x="916" y="100" width="14" height="14" rx="2" ry="2" class="lvl-0" />
  <rect x="932" y="100" width="14" height="14" rx="2" ry="2" class="lvl-0" />
  <rect x="948" y="100" width="14" height="14" rx="2" ry="2" class="lvl-3" />
  <rect x="884" y="116" width="14" height="14" rx="2" ry="2" class="lvl-0" />
  <rect x="900" y="116" width="14" height="14" rx="2" ry="2" class="lvl-4" />
  <rect x="916" y="116" width="14" height="14" rx="2" ry="2" class="lvl-2" />
  <rect x="932" y="116" width="14" height="14" rx="2" ry="2" class="lvl-3" />
  <rect x="948" y="116" width="14" height="14" rx="2" ry="2" class="lvl-0" />
  <rect x="980" y="20" width="14" height="14" rx="2" ry="2" class="lvl-0" />
  <rect x="996" y="20" width="14" height="14" rx="2" ry="2" class="lvl-3" />
  <rect x="1012" y="20" width="14" height="14" rx="2" ry="2" class="lvl-3" />
  <rect x="1028" y="20" width="14" height="14" rx="2" ry="2" class="lvl-4" />
  <rect x="1044" y="20" width="14" height="14" rx="2" ry="2" class="lvl-0" />
  <rect x="980" y="36" width="14" height="14" rx="2" ry="2" class="lvl-2" />
  <rect x="996" y="36" width="14" height="14" rx="2" ry="2" class="lvl-0" />
  <rect x="1012" y="36" width="14" height="14" rx="2" ry="2" class="lvl-0" />
  <rect x="1028" y="36" width="14" height="14" rx="2" ry="2" class="lvl-0" />
  <rect x="1044" y="36" width="14" height="14" rx="2" ry="2" class="lvl-3" />
  <rect x="980" y="52" width="14" height="14" rx="2" ry="2" class="lvl-2" />
  <rect x="996" y="52" width="14" height="14" rx="2" ry="2" class="lvl-0" />
  <rect x="1012" y="52" width="14" height="14" rx="2" ry="2" class="lvl-0" />
  <rect x="1028" y="52" width="14" height="14" rx="2" ry="2" class="lvl-0" />
  <rect x="1044" y="52" width="14" height="14" rx="2" ry="2" class="lvl-3" />
  <rect x="980" y="68" width="14" height="14" rx="2" ry="2" class="lvl-2" />
  <rect x="996" y="68" width="14" height="14" rx="2" ry="2" class="lvl-0" />
  <rect x="1012" y="68" width="14" height="14" rx="2" ry="2" class="lvl-0" />
  <rect x="1028" y="68" width="14" height="14" rx="2" ry="2" class="lvl-0" />
  <rect x="1044" y="68" width="14" height="14" rx="2" ry="2" class="lvl-3" />
  <rect x="980" y="84" width="14" height="14" rx="2" ry="2" class="lvl-3" />
  <rect x="996" y="84" width="14" height="14" rx="2" ry="2" class="lvl-0" />
  <rect x="1012" y="84" width="14" height="14" rx="2" ry="2" class="lvl-0" />
  <rect x="1028" y="84" width="14" height="14" rx="2" ry="2" class="lvl-0" />
  <rect x="1044" y="84" width="14" height="14" rx="2" ry="2" class="lvl-3" />
  <rect x="980" y="100" width="14" height="14" rx="2" ry="2" class="lvl-3" />
  <rect x="996" y="100" width="14" height="14" rx="2" ry="2" class="lvl-0" />
  <rect x="1012" y="100" width="14" height="14" rx="2" ry="2" class="lvl-0" />
  <rect x="1028" y="100" width="14" height="14" rx="2" ry="2" class="lvl-0" />
  <rect x="1044" y="100" width="14" height="14" rx="2" ry="2" class="lvl-3" />
  <rect x="980" y="116" width="14" height="14" rx="2" ry="2" class="lvl-0" />
  <rect x="996" y="116" width="14" height="14" rx="2" ry="2" class="lvl-3" />
  <rect x="1012" y="116" width="14" height="14" rx="2" ry="2" class="lvl-2" />
  <rect x="1028" y="116" width="14" height="14" rx="2" ry="2" class="lvl-3" />
  <rect x="1044" y="116" width="14" height="14" rx="2" ry="2" class="lvl-0" />
  <rect x="1076" y="20" width="14" height="14" rx="2" ry="2" class="lvl-4" />
  <rect x="1092" y="20" width="14" height="14" rx="2" ry="2" class="lvl-2" />
  <rect x="1108" y="20" width="14" height="14" rx="2" ry="2" class="lvl-3" />
  <rect x="1124" y="20" width="14" height="14" rx="2" ry="2" class="lvl-4" />
  <rect x="1140" y="20" width="14" height="14" rx="2" ry="2" class="lvl-0" />
  <rect x="1076" y="36" width="14" height="14" rx="2" ry="2" class="lvl-4" />
  <rect x="1092" y="36" width="14" height="14" rx="2" ry="2" class="lvl-0" />
  <rect x="1108" y="36" width="14" height="14" rx="2" ry="2" class="lvl-0" />
  <rect x="1124" y="36" width="14" height="14" rx="2" ry="2" class="lvl-0" />
  <rect x="1140" y="36" width="14" height="14" rx="2" ry="2" class="lvl-2" />
  <rect x="1076" y="52" width="14" height="14" rx="2" ry="2" class="lvl-4" />
  <rect x="1092" y="52" width="14" height="14" rx="2" ry="2" class="lvl-0" />
  <rect x="1108" y="52" width="14" height="14" rx="2" ry="2" class="lvl-0" />
  <rect x="1124" y="52" width="14" height="14" rx="2" ry="2" class="lvl-0" />
  <rect x="1140" y="52" width="14" height="14" rx="2" ry="2" class="lvl-2" />
  <rect x="1076" y="68" width="14" height="14" rx="2" ry="2" class="lvl-2" />
  <rect x="1092" y="68" width="14" height="14" rx="2" ry="2" class="lvl-0" />
  <rect x="1108" y="68" width="14" height="14" rx="2" ry="2" class="lvl-0" />
  <rect x="1124" y="68" width="14" height="14" rx="2" ry="2" class="lvl-0" />
  <rect x="1140" y="68" width="14" height="14" rx="2" ry="2" class="lvl-3" />
  <rect x="1076" y="84" width="14" height="14" rx="2" ry="2" class="lvl-2" />
  <rect x="1092" y="84" width="14" height="14" rx="2" ry="2" class="lvl-0" />
  <rect x="1108" y="84" width="14" height="14" rx="2" ry="2" class="lvl-0" />
  <rect x="1124" y="84" width="14" height="14" rx="2" ry="2" class="lvl-0" />
  <rect x="1140" y="84" width="14" height="14" rx="2" ry="2" class="lvl-3" />
  <rect x="1076" y="100" width="14" height="14" rx="2" ry="2" class="lvl-2" />
  <rect x="1092" y="100" width="14" height="14" rx="2" ry="2" class="lvl-0" />
  <rect x="1108" y="100" width="14" height="14" rx="2" ry="2" class="lvl-0" />
  <rect x="1124" y="100" width="14" height="14" rx="2" ry="2" class="lvl-0" />
  <rect x="1140" y="100" width="14" height="14" rx="2" ry="2" class="lvl-3" />
  <rect x="1076" y="116" width="14" height="14" rx="2" ry="2" class="lvl-3" />
  <rect x="1092" y="116" width="14" height="14" rx="2" ry="2" class="lvl-3" />
  <rect x="1108" y="116" width="14" height="14" rx="2" ry="2" class="lvl-4" />
  <rect x="1124" y="116" width="14" height="14" rx="2" ry="2" class="lvl-2" />
  <rect x="1140" y="116" width="14" height="14" rx="2" ry="2" class="lvl-0" />
  <rect x="1172" y="20" width="14" height="14" rx="2" ry="2" class="lvl-3" />
  <rect x="1188" y="20" width="14" height="14" rx="2" ry="2" class="lvl-2" />
  <rect x="1204" y="20" width="14" height="14" rx="2" ry="2" class="lvl-3" />
  <rect x="1220" y="20" width="14" height="14" rx="2" ry="2" class="lvl-3" />
  <rect x="1236" y="20" width="14" height="14" rx="2" ry="2" class="lvl-4" />
  <rect x="1172" y="36" width="14" height="14" rx="2" ry="2" class="lvl-4" />
  <rect x="1188" y="36" width="14" height="14" rx="2" ry="2" class="lvl-0" />
  <rect x="1204" y="36" width="14" height="14" rx="2" ry="2" class="lvl-0" />
  <rect x="1220" y="36" width="14" height="14" rx="2" ry="2" class="lvl-0" />
  <rect x="1236" y="36" width="14" height="14" rx="2" ry="2" class="lvl-0" />
  <rect x="1172" y="52" width="14" height="14" rx="2" ry="2" class="lvl-4" />
  <rect x="1188" y="52" width="14" height="14" rx="2" ry="2" class="lvl-0" />
  <rect x="1204" y="52" width="14" height="14" rx="2" ry="2" class="lvl-0" />
  <rect x="1220" y="52" width="14" height="14" rx="2" ry="2" class="lvl-0" />
  <rect x="1236" y="52" width="14" height="14" rx="2" ry="2" class="lvl-0" />
  <rect x="1172" y="68" width="14" height="14" rx="2" ry="2" class="lvl-4" />
  <rect x="1188" y="68" width="14" height="14" rx="2" ry="2" class="lvl-2" />
  <rect x="1204" y="68" width="14" height="14" rx="2" ry="2" class="lvl-3" />
  <rect x="1220" y="68" width="14" height="14" rx="2" ry="2" class="lvl-4" />
  <rect x="1236" y="68" width="14" height="14" rx="2" ry="2" class="lvl-0" />
  <rect x="1172" y="84" width="14" height="14" rx="2" ry="2" class="lvl-4" />
  <rect x="1188" y="84" width="14" height="14" rx="2" ry="2" class="lvl-0" />
  <rect x="1204" y="84" width="14" height="14" rx="2" ry="2" class="lvl-0" />
  <rect x="1220" y="84" width="14" height="14" rx="2" ry="2" class="lvl-0" />
  <rect x="1236" y="84" width="14" height="14" rx="2" ry="2" class="lvl-0" />
  <rect x="1172" y="100" width="14" height="14" rx="2" ry="2" class="lvl-2" />
  <rect x="1188" y="100" width="14" height="14" rx="2" ry="2" class="lvl-0" />
  <rect x="1204" y="100" width="14" height="14" rx="2" ry="2" class="lvl-0" />
  <rect x="1220" y="100" width="14" height="14" rx="2" ry="2" class="lvl-0" />
  <rect x="1236" y="100" width="14" height="14" rx="2" ry="2" class="lvl-0" />
  <rect x="1172" y="116" width="14" height="14" rx="2" ry="2" class="lvl-2" />
  <rect x="1188" y="116" width="14" height="14" rx="2" ry="2" class="lvl-3" />
  <rect x="1204" y="116" width="14" height="14" rx="2" ry="2" class="lvl-3" />
  <rect x="1220" y="116" width="14" height="14" rx="2" ry="2" class="lvl-2" />
  <rect x="1236" y="116" width="14" height="14" rx="2" ry="2" class="lvl-3" />
</svg>
